<?xml version="1.0" standalone="no"?>
<!DOCTYPE svg PUBLIC "-//W3C//DTD SVG 20010904//EN"
 "http://www.w3.org/TR/2001/REC-SVG-20010904/DTD/svg10.dtd">
<svg version="1.0" xmlns="http://www.w3.org/2000/svg"
 width="1210.000000pt" height="1210.000000pt" viewBox="0 0 1210.000000 1210.000000"
 preserveAspectRatio="xMidYMid meet">
<metadata>
Created by potrace 1.16, written by Peter Selinger 2001-2019
</metadata>
<g transform="translate(0.000000,1210.000000) scale(0.100000,-0.100000)"
fill="#000000" stroke="none">
<path d="M5440 8070 c-19 -4 -84 -12 -145 -19 -413 -44 -698 -124 -1025 -286
-134 -66 -289 -160 -383 -233 -81 -62 -400 -385 -453 -458 -70 -97 -145 -277
-178 -427 -36 -160 -46 -458 -22 -663 27 -229 71 -367 151 -476 l35 -48 940 0
940 0 0 528 c0 586 0 589 64 651 84 82 246 49 295 -59 14 -31 16 -104 19 -577
l3 -543 1362 0 1362 1 25 22 c80 71 136 168 174 303 36 128 48 241 49 474 1
305 -27 547 -81 700 -55 157 -261 374 -518 548 -76 51 -306 179 -354 197 -19
7 -102 40 -185 74 -136 56 -301 113 -490 170 -124 37 -358 81 -530 101 -55 6
-116 16 -136 21 -43 11 -868 10 -919 -1z m-937 -844 c51 -19 76 -42 101 -96
20 -44 21 -61 24 -552 l3 -506 222 -4 c201 -3 226 -5 261 -24 70 -36 81 -61
81 -178 0 -196 -29 -207 -555 -202 -252 2 -302 5 -340 19 -58 23 -93 57 -122
121 l-23 51 -3 579 c-3 637 -3 640 58 723 43 58 98 83 185 83 39 -1 87 -7 108
-14z m1110 -115 c65 -40 87 -159 41 -229 -24 -37 -89 -62 -164 -62 -155 0
-240 110 -178 230 34 67 90 93 189 87 56 -2 85 -9 112 -26z m352 -440 c22 -10
45 -24 51 -32 6 -8 71 -128 145 -267 73 -138 136 -249 141 -244 4 4 66 117
138 252 84 159 141 255 162 272 63 54 149 49 210 -12 60 -59 55 -87 -45 -283
-159 -309 -339 -632 -365 -655 -60 -50 -142 -51 -205 -2 -32 26 -385 673 -437
801 l-23 57 22 45 c38 78 123 106 206 68z m1690 -14 c143 -39 260 -136 301
-248 41 -114 36 -220 -12 -272 -53 -57 -58 -58 -425 -64 -338 -6 -339 -6 -333
-27 12 -42 61 -92 119 -121 56 -28 67 -30 175 -30 104 0 120 3 173 27 32 15
72 39 88 53 111 93 267 22 242 -109 -14 -71 -143 -156 -298 -197 -102 -27
-278 -30 -379 -5 -290 70 -459 304 -416 579 33 219 200 373 455 423 81 16 235
11 310 -9z"/>
<path d="M7412 6429 c-77 -10 -136 -37 -182 -84 l-34 -35 252 0 c139 0 252 3
252 6 0 4 -9 21 -20 39 -21 35 -68 62 -119 70 -68 11 -88 11 -149 4z"/>
<path d="M3393 5308 c-42 -21 -44 -40 -41 -540 3 -456 4 -477 22 -497 15 -17
29 -21 60 -19 36 3 43 8 58 38 16 31 18 72 18 398 l0 362 115 0 c128 0 135 -4
135 -73 0 -45 -13 -54 -89 -59 -55 -4 -67 -8 -88 -33 -23 -26 -25 -35 -21
-113 4 -107 18 -122 114 -122 108 0 160 36 209 143 75 164 38 397 -78 491
l-39 31 -176 2 c-112 2 -185 -2 -199 -9z"/>
<path d="M4304 5305 c-29 -20 -37 -42 -174 -495 -17 -58 -42 -139 -55 -180
-73 -232 -81 -307 -35 -355 l23 -25 278 0 278 0 20 26 c53 68 52 76 -175 803
-60 190 -58 186 -87 219 -24 26 -44 28 -73 7z m95 -602 c28 -94 51 -176 51
-182 0 -13 -216 -16 -223 -3 -6 11 107 372 114 364 4 -4 30 -84 58 -179z"/>
<path d="M4793 5305 c-12 -9 -27 -32 -33 -53 -13 -47 -13 -881 0 -937 11 -48
34 -67 79 -63 24 2 40 12 55 31 20 27 21 41 24 398 l4 369 108 0 c101 0 110
-2 124 -22 20 -29 20 -72 0 -92 -9 -10 -34 -16 -62 -17 -73 -2 -95 -11 -115
-49 -13 -25 -17 -51 -14 -92 3 -49 19 -89 103 -260 112 -228 140 -268 188
-268 53 0 70 29 74 119 l3 76 -61 100 c-57 91 -61 100 -44 110 71 40 99 129
99 310 0 111 -4 138 -23 186 -27 68 -84 137 -129 155 -49 21 -351 20 -380 -1z"/>
<path d="M6382 5308 c-58 -16 -62 -39 -62 -365 1 -398 22 -505 124 -609 64
-66 134 -90 234 -81 92 9 156 47 208 124 74 109 98 276 92 645 -3 195 -5 227
-21 251 -36 55 -101 57 -141 3 -20 -26 -21 -44 -26 -329 -5 -297 -5 -303 -30
-352 -61 -121 -187 -109 -236 23 -14 39 -18 97 -23 348 -5 226 -9 305 -19 317
-20 24 -63 35 -100 25z"/>
<path d="M5757 5296 c-170 -63 -277 -262 -277 -516 0 -233 90 -417 244 -498
71 -37 179 -38 249 -2 240 122 326 524 176 822 -36 71 -108 147 -170 179 -55
28 -167 36 -222 15z m182 -277 c29 -20 51 -49 69 -87 23 -49 27 -70 27 -152 0
-109 -19 -163 -76 -218 -155 -151 -357 80 -284 325 43 144 164 205 264 132z"/>
<path d="M7095 5285 l-25 -24 0 -470 c0 -323 3 -478 11 -494 19 -41 78 -59
121 -36 44 24 48 56 48 434 l0 355 124 0 c123 0 125 0 145 -26 26 -33 26 -55
3 -84 -14 -18 -32 -23 -100 -29 -64 -5 -85 -11 -97 -26 -31 -42 -32 -135 -2
-192 43 -83 212 -373 233 -400 66 -87 164 -36 164 85 0 61 -11 86 -87 194
l-54 77 35 16 c68 33 114 186 103 345 -8 122 -59 220 -142 274 -39 26 -40 26
-247 26 -208 0 -209 0 -233 -25z"/>
<path d="M7979 5296 c-51 -18 -94 -51 -118 -89 -46 -75 -64 -225 -40 -339 33
-153 107 -206 306 -215 95 -5 120 -10 135 -25 24 -24 23 -70 -3 -94 -19 -17
-42 -20 -210 -24 -178 -5 -190 -6 -211 -27 -29 -29 -37 -123 -15 -176 23 -54
45 -59 257 -55 180 3 186 4 243 32 100 49 140 134 141 296 0 124 -21 197 -75
255 -53 57 -106 75 -248 82 -92 5 -118 10 -133 25 -25 25 -23 54 7 83 24 25
27 25 199 25 96 0 186 4 199 9 51 20 71 164 30 219 l-20 27 -204 2 c-147 2
-214 -1 -240 -11z"/>
</g>
</svg>
